<?xml version="1.0" encoding="utf-8"?>
<!-- Generator: Adobe Illustrator 23.0.0, SVG Export Plug-In . SVG Version: 6.00 Build 0)  -->
<svg version="1.1" id="Capa_1" xmlns="http://www.w3.org/2000/svg" xmlns:xlink="http://www.w3.org/1999/xlink" x="0px" y="0px"
	 viewBox="0 0 380.6 380.6" style="enable-background:new 0 0 380.6 380.6;" xml:space="preserve">
<style type="text/css">
	.st0{fill:#FE0201;}
</style>
<g>
	<g>
		<path class="st0" d="M310.8,268.6H266c-9.3,0-18.4,2.4-26.4,7c-6.9,3.9-12.8,9.2-17.4,15.6c-3.1-0.5-6.2-0.8-9.3-0.8H168
			c-3.1,0-6.2,0.3-9.3,0.8c-4.6-6.4-10.5-11.7-17.4-15.6c-8.1-4.6-17.2-7-26.4-7H70c-29.8,0.1-53.9,24.2-54,54v30.4
			c0,3.2,2.6,5.8,5.8,5.8h92v16c0,3.2,2.6,5.8,5.8,5.8H261c3.2,0,5.8-2.6,5.8-5.8v-16h92c3.2,0,5.8-2.6,5.8-5.8v-30.4
			C364.6,292.9,340.5,268.8,310.8,268.6z M114.4,339.3v1.2c0,0.6,0,1.1,0,1.6v2.3v2.8H27.6v-24.6c0.1-23.4,19-42.3,42.4-42.4h44.8
			c7.3,0,14.4,1.9,20.7,5.4c4.2,2.4,8,5.5,11.2,9.2C128.8,302.7,116.4,319.7,114.4,339.3z M255.1,344.5v24.6H125.6V344
			c0-0.5,0-0.9,0-1.3c0-0.7,0-1.4,0-2.1v-1c0-0.4,0-0.8,0-1.2v-1.3v-0.4v-0.4v-0.9l0.2-1l0.4-1.4l0.3-1c5.7-17.4,22-29.2,40.3-29.3
			l1.2-0.6h44.9c21.3,0.1,39.3,15.9,42,37c0,0.9,0,1.8,0.2,2.6C255.1,342.6,255.1,343.5,255.1,344.5z M353.2,347.3h-86.4v-3.5
			c0-0.4,0-0.9,0-1.3c0-0.5,0-0.9,0-1.4c0-0.6,0-1.3,0-2v-0.6v-0.7v-1.2v-0.2V336v-0.4v-0.3v-0.5v-0.6v-0.3v-0.4v-0.4v-0.4v-0.9
			v-0.4V331v-0.5l-0.3-1v-0.4v-0.4v-0.3v-0.4v-0.5L266,326c-5.2-13.9-15.8-25-29.4-30.8c2.4-3.6,5.3-6.7,8.7-9.4
			c6.3-3.6,13.5-5.4,20.7-5.4h44.9c23.4,0.1,42.3,19,42.4,42.4V347.3z"/>
	</g>
</g>
<g>
	<g>
		<circle class="st0" cx="190.6" cy="77.8" r="6.6"/>
	</g>
</g>
<g>
	<g>
		<path class="st0" d="M121.3,189.2c-7.6-7.7-18-12-28.9-12c-22.6,0-40.9,18.2-40.9,40.8c0,22.6,18.2,40.9,40.8,40.9
			s40.9-18.2,40.9-40.8C133.2,207.2,128.9,196.8,121.3,189.2z M113.1,238.6c-11.4,11.4-29.9,11.4-41.4,0
			c-11.4-11.4-11.4-29.9,0-41.4c11.4-11.4,29.9-11.4,41.4,0c5.5,5.5,8.6,12.9,8.6,20.7C121.7,225.7,118.6,233.2,113.1,238.6z"/>
	</g>
</g>
<g>
	<g>
		<circle class="st0" cx="233" cy="77.8" r="6.6"/>
	</g>
</g>
<g>
	<g>
		<path class="st0" d="M258.7,22.7C239.2,7.7,215.1-0.3,190.4,0c-24.7-0.3-48.8,7.7-68.3,22.7C104.2,37,93.1,57,93.1,79
			c0,11.2,2.9,22.2,8.3,32c5.1,9.3,12.1,17.4,20.4,24l-4.6,30.6c-0.5,3.1,1.7,6.1,4.8,6.6c1.3,0.2,2.6-0.1,3.8-0.7l31.3-18.2
			c5,1.5,10,2.6,15.1,3.4c6.1,0.9,12.2,1.4,18.3,1.4c24.7,0.3,48.8-7.7,68.3-22.7c17.9-14.4,29-34.2,29-56.3S276.6,37,258.7,22.7z
			 M251.5,126.3c-17.5,13.3-39.1,20.4-61.1,20c-5.5,0-11.1-0.4-16.5-1.2c-5.4-0.8-10.8-2.1-16-3.7c-1.6-0.5-3.2-0.3-4.6,0.5
			l-22.8,13.5l3.3-22c0.3-2.1-0.6-4.3-2.4-5.6c-8.2-5.9-15-13.6-20-22.4c-4.4-8.1-6.8-17.2-6.8-26.4c0-18.4,9.4-35.1,24.6-47.3
			c17.5-13.3,39.1-20.4,61.1-20c22-0.4,43.6,6.7,61.1,20C266.6,43.7,276,60.6,276,79S266.7,114.1,251.5,126.3z"/>
	</g>
</g>
<g>
	<g>
		<path class="st0" d="M288.4,177.1c-22.6,0-40.9,18.2-40.9,40.8c0,10.8,4.3,21.2,11.9,28.9c7.6,7.7,18,12,28.9,12
			c22.6,0,40.9-18.2,40.9-40.8S311,177.1,288.4,177.1z M309.1,238.6c-11.4,11.4-29.9,11.4-41.4,0c-5.5-5.5-8.6-12.9-8.6-20.7
			c0-7.8,3.1-15.2,8.6-20.7c11.4-11.4,29.9-11.4,41.4,0C320.5,208.7,320.5,227.2,309.1,238.6z"/>
	</g>
</g>
<g>
	<g>
		<circle class="st0" cx="148.2" cy="77.8" r="6.6"/>
	</g>
</g>
<g>
	<g>
		<path class="st0" d="M219.2,210.8c-7.7-7.6-18-11.9-28.8-11.9c-10.8,0-21.2,4.3-28.9,12c-15.9,16-15.9,41.8,0.1,57.7
			s41.8,15.9,57.7-0.1S235.2,226.7,219.2,210.8z M190.4,269c-16.1,0-29.2-13.1-29.2-29.2s13.1-29.2,29.2-29.2
			c7.8,0,15.2,3.1,20.7,8.6c5.5,5.5,8.6,12.9,8.6,20.7C219.6,256,206.5,269,190.4,269z"/>
	</g>
</g>
</svg>
