<?xml version="1.0" encoding="utf-8"?>
<!-- Generator: Adobe Illustrator 23.0.0, SVG Export Plug-In . SVG Version: 6.00 Build 0)  -->
<svg version="1.1" id="Layer_1" xmlns="http://www.w3.org/2000/svg" xmlns:xlink="http://www.w3.org/1999/xlink" x="0px" y="0px"
	 viewBox="0 0 411 411" style="enable-background:new 0 0 411 411;" xml:space="preserve">
<style type="text/css">
	.st0{fill:#FE0201;}
</style>
<path class="st0" d="M105.1,99.4c-0.1-0.1-0.3-0.3-0.4-0.4c-0.2-0.2-0.3-0.3-0.5-0.5c-0.1-0.1-0.3-0.2-0.4-0.3
	c-0.2-0.2-0.4-0.4-0.6-0.5c-0.1-0.1-0.2-0.2-0.4-0.3c-0.2-0.2-0.4-0.4-0.7-0.5c-0.1-0.1-0.3-0.2-0.4-0.3c-0.2-0.2-0.4-0.3-0.7-0.5
	c-0.1-0.1-0.2-0.1-0.3-0.2c-0.3-0.2-0.5-0.3-0.8-0.5c-0.1,0-0.1-0.1-0.2-0.1c-0.3-0.2-0.6-0.4-0.9-0.5c0,0-0.1,0-0.1-0.1
	c-0.3-0.2-0.7-0.4-1-0.5c0,0-0.1,0-0.1-0.1c-0.4-0.2-0.7-0.3-1.1-0.5l-0.1,0c-0.8-0.3-1.6-0.6-2.3-0.8c-0.1,0-0.2,0-0.2-0.1
	c-0.3-0.1-0.7-0.2-1-0.3l0,0c-0.4-0.1-0.8-0.2-1.2-0.3c-0.1,0-0.2,0-0.3-0.1c-0.3-0.1-0.6-0.1-1-0.2c-0.2,0-0.3,0-0.5-0.1
	c-0.3,0-0.5-0.1-0.8-0.1c-0.3,0-0.5,0-0.8-0.1c-0.2,0-0.3,0-0.5,0c-0.4,0-0.9,0-1.3,0c-14.7,0-26.6,11.9-26.6,26.6v17.2
	c0,3.3,2.7,6,6,6h41.3c3.3,0,6-2.7,6-6v-17.2C112.9,111.2,110.1,104.4,105.1,99.4L105.1,99.4z M100.9,129.5H71.6v-11.2
	c0-5.9,3.6-11.3,9.1-13.5c5.5-2.3,11.8-1,16,3.2c2.8,2.7,4.3,6.5,4.3,10.4L100.9,129.5z"/>
<path class="st0" d="M273.5,91.6c-14.7,0-26.6,11.9-26.6,26.6v17.2c0,3.3,2.7,6,6,6h41.3c3.3,0,6-2.7,6-6v-17.2
	C300.2,103.6,288.2,91.6,273.5,91.6L273.5,91.6z M288.2,129.5h-29.3v-11.2c0-5.9,3.6-11.3,9.1-13.5s11.8-1,16,3.2
	c2.8,2.7,4.3,6.5,4.3,10.4L288.2,129.5z"/>
<path class="st0" d="M221.2,162.5h-82.6c-3.3,0-6,2.7-6,6c0.1,26,21.3,47.1,47.3,47.1c26,0,47.2-21,47.3-47.1
	C227.2,165.1,224.5,162.5,221.2,162.5z M204.9,193.4c-9.3,9.3-23.1,12.7-35.7,8.7c-12.6-4-21.9-14.7-24.1-27.7h69.6
	C213.5,181.6,210.1,188.3,204.9,193.4z"/>
<path class="st0" d="M316.4,323.4h-50.1c-3.1-19.9-21-34.1-41.1-32.5c-20.1,1.6-35.6,18.3-35.6,38.5c0,20.2,15.5,36.9,35.6,38.5
	c20.1,1.6,38-12.6,41.1-32.5h50.1c40.1,0,72.6-32.6,72.7-72.7v-58c18.3-14.5,26.1-38.6,19.7-61c-6.4-22.5-25.8-38.8-49-41.4V81.9
	c0-20.4-16.6-36.9-37-37H37c-20.4,0-36.9,16.6-37,37v155.4c0,20.4,16.6,36.9,37,37h12.6v67.5c0,2.4,1.4,4.5,3.5,5.5
	c2.2,1,4.7,0.6,6.4-1l80.9-72h182.4c20.4,0,36.9-16.6,37-37v-20.5c6-0.7,11.8-2.3,17.3-4.8v50.7
	C377.1,296.2,349.9,323.4,316.4,323.4z M228.2,356c-14.7,0-26.6-11.9-26.6-26.6c0-14.7,11.9-26.6,26.6-26.6
	c14.7,0,26.6,11.9,26.6,26.6C254.8,344.1,242.9,356,228.2,356z M347.8,237.3c0,13.8-11.2,25-25,25H138.2c-1.5,0-2.9,0.5-4,1.5
	l-72.6,64.7v-60.2c0-3.3-2.7-6-6-6H37c-13.8,0-25-11.2-25-25V81.9c0-13.8,11.2-25,25-25h285.9c13.8,0,25,11.2,25,25L347.8,237.3z
	 M359.8,114.4c22.5,3.2,39.2,22.5,39.2,45.2s-16.7,42-39.2,45.2V114.4z"/>
</svg>
