<?xml version="1.0" encoding="utf-8"?>
<!-- Generator: Adobe Illustrator 23.0.0, SVG Export Plug-In . SVG Version: 6.00 Build 0)  -->
<svg version="1.1" id="Layer_1" xmlns="http://www.w3.org/2000/svg" xmlns:xlink="http://www.w3.org/1999/xlink" x="0px" y="0px"
	 viewBox="0 0 495 495" style="enable-background:new 0 0 495 495;" xml:space="preserve">
<style type="text/css">
	.st0{fill:#FE0201;}
</style>
<path class="st0" d="M234.7,188.9h28.9c3.3,0,6-2.7,6-6v-12.5c0-11-8.9-19.9-20-20h-0.9c-11,0-19.9,8.9-20,20v12.5
	C228.7,186.2,231.4,188.9,234.7,188.9z M240.7,170.4c0-4.4,3.6-8,8-8h0.9c4.4,0,8,3.6,8,8v6.5h-16.9V170.4z"/>
<path class="st0" d="M365.6,188.9h28.9c3.3,0,6-2.7,6-6v-12.5c0-11-8.9-19.9-20-20h-0.9c-11,0-19.9,8.9-20,20v12.5
	C359.6,186.2,362.3,188.9,365.6,188.9z M371.6,170.4c0-4.4,3.6-8,8-8h0.9c4.4,0,8,3.6,8,8v6.5h-16.9V170.4z"/>
<path class="st0" d="M313.7,240.8h1.8c18.7,0,33.9-15.2,33.9-33.9V206c0-3.3-2.7-6-6-6h-57.7c-3.3,0-6,2.7-6,6v0.9
	C279.8,225.6,294.9,240.8,313.7,240.8z M336.9,212c-2.4,9.9-11.2,16.9-21.4,16.9h-1.8c-10.2,0-19-7-21.4-16.9H336.9z"/>
<path class="st0" d="M273.7,67.4c-7.3,0-13.2,5.9-13.2,13.2v15.6H223c-18.2,0-33.5,13.6-35.7,31.7h-22.1
	c-14.7,0-26.6,11.9-26.6,26.6v34.7H42.6c-14.7,0-26.6,11.9-26.6,26.6V489c0,2.2,1.3,4.3,3.3,5.3c2,1,4.4,0.8,6.2-0.5l76.3-54.7
	h228.3c14.7,0,26.6-11.9,26.6-26.6v-34.7h36.9l76.3,54.7c1.8,1.3,4.2,1.5,6.2,0.5s3.3-3.1,3.3-5.3V154.5c0-14.7-11.9-26.6-26.6-26.6
	h-10.9c-2.1-18.1-17.5-31.7-35.7-31.7h-37.5V80.6c0-7.3-5.9-13.2-13.2-13.2h-35.2V56.9c14.4-3.1,24.1-16.6,22.5-31.2
	C341.1,11,328.7-0.1,314,0c-14.7,0.1-27,11.2-28.5,25.9c-1.5,14.6,8.3,28,22.8,31v10.5H273.7z M297.4,28.8c0-9.3,7.5-16.8,16.8-16.8
	c9.3,0,16.8,7.5,16.8,16.8c0,9.3-7.5,16.8-16.8,16.8C304.9,45.5,297.4,38,297.4,28.8L297.4,28.8z M344.7,412.6
	c0,8.1-6.6,14.6-14.6,14.6H99.8c-1.3,0-2.5,0.4-3.5,1.1l-68.4,49V215.8c0-8.1,6.5-14.6,14.6-14.6h96.1v150
	c0,14.7,11.9,26.6,26.6,26.6h179.5L344.7,412.6z M467.4,154.5V416l-68.4-49c-1-0.7-2.2-1.1-3.5-1.1H165.2c-8.1,0-14.6-6.5-14.6-14.6
	V154.5c0-8.1,6.6-14.6,14.6-14.6h21.9v84.2c0,19.8,16.1,35.9,35.9,35.9h183.1c19.8,0,35.9-16.1,35.9-35.9v-84.2h10.7
	C460.8,139.9,467.3,146.4,467.4,154.5z M423.1,115.2c4.5,4.5,7,10.6,7,16.9v92c0,13.2-10.7,23.9-24,24H223c-13.2,0-23.9-10.7-24-24
	v-89c0.2-0.8,0.2-1.7,0-2.5v-0.5c0-13.2,10.7-23.9,24-24h183.1C412.5,108.1,418.6,110.7,423.1,115.2z M356.7,80.6v15.6h-84.2V80.6
	c0-0.7,0.5-1.2,1.2-1.2h81.8C356.1,79.4,356.7,79.9,356.7,80.6z"/>
</svg>
