<?xml version="1.0" encoding="utf-8"?>
<!-- Generator: Adobe Illustrator 23.0.0, SVG Export Plug-In . SVG Version: 6.00 Build 0)  -->
<svg version="1.1" id="Layer_1" xmlns="http://www.w3.org/2000/svg" xmlns:xlink="http://www.w3.org/1999/xlink" x="0px" y="0px"
	 viewBox="0 0 490 490" style="enable-background:new 0 0 490 490;" xml:space="preserve">
<style type="text/css">
	.st0{fill:#FE0201;}
</style>
<path class="st0" d="M83.9,279.5c0.9,0.5,1.9,0.7,2.9,0.7c0.3,0,0.6,0,0.9-0.1c2.6-0.4,4.7-2.4,5.2-5c0.6-2.8,1-5.6,1.2-8.4
	c1.8-19.5,5.7-38.6,30.4-38.6h194c18.8,0,34-15.3,34.1-34.1V42.7c0-18.8-15.3-34-34.1-34.1H34.1C15.3,8.7,0,23.9,0,42.7v151.5
	c0,18.8,15.3,34,34.1,34.1h11.4c1.8-0.1,3.3,1.2,3.7,2.9C55.5,266.8,78.9,277.6,83.9,279.5z M45.5,216.3H34.1
	c-12.2,0-22.1-9.9-22.1-22.1V42.7c0-12.2,9.9-22.1,22.1-22.1h284.5c12.2,0,22.1,9.9,22.1,22.1v151.5c0,12.2-9.9,22.1-22.1,22.1h-194
	c-37.2,0-40.8,33.8-42.2,48.9c-6.9-4.6-17.5-15-21.3-36.1C59.6,221.6,53.1,216.2,45.5,216.3z"/>
<path class="st0" d="M311.5,133.7h-71.9c-3.3,0-6,2.7-6,6c0,3.3,2.7,6,6,6h71.9c3.3,0,6-2.7,6-6
	C317.5,136.4,314.8,133.7,311.5,133.7z"/>
<path class="st0" d="M211.6,139.7c0-3.3-2.7-6-6-6H92.3c-3.3,0-6,2.7-6,6c0,3.3,2.7,6,6,6h113.4C208.9,145.7,211.6,143,211.6,139.7z
	"/>
<path class="st0" d="M41.1,145.7h24.7c3.3,0,6-2.7,6-6c0-3.3-2.7-6-6-6H41.1c-3.3,0-6,2.7-6,6C35.1,143,37.8,145.7,41.1,145.7z"/>
<path class="st0" d="M292.7,110.6h18.8c3.3,0,6-2.7,6-6c0-3.3-2.7-6-6-6h-18.8c-3.3,0-6,2.7-6,6
	C286.7,107.9,289.4,110.6,292.7,110.6z"/>
<path class="st0" d="M266.4,110.6c3.3,0,6-2.7,6-6c0-3.3-2.7-6-6-6H235c-3.3,0-6,2.7-6,6c0,3.3,2.7,6,6,6H266.4z"/>
<path class="st0" d="M41.1,110.6h167.4c3.3,0,6-2.7,6-6c0-3.3-2.7-6-6-6H41.1c-3.3,0-6,2.7-6,6C35.1,107.9,37.8,110.6,41.1,110.6z"
	/>
<path class="st0" d="M296.3,68.5h15.2c3.3,0,6-2.7,6-6c0-3.3-2.7-6-6-6h-15.2c-3.3,0-6,2.7-6,6C290.3,65.8,293,68.5,296.3,68.5z"/>
<path class="st0" d="M204.6,68.5h65c3.3,0,6-2.7,6-6c0-3.3-2.7-6-6-6h-65c-3.3,0-6,2.7-6,6C198.6,65.8,201.3,68.5,204.6,68.5z"/>
<path class="st0" d="M41.1,68.5h137.1c3.3,0,6-2.7,6-6c0-3.3-2.7-6-6-6H41.1c-3.3,0-6,2.7-6,6C35.1,65.8,37.8,68.5,41.1,68.5z"/>
<path class="st0" d="M241.4,168.8h-2.9c-3.3,0-6,2.7-6,6c0,3.3,2.7,6,6,6h2.9c3.3,0,6-2.7,6-6C247.4,171.5,244.7,168.8,241.4,168.8z
	"/>
<path class="st0" d="M214.1,168.8h-52c-3.3,0-6,2.7-6,6c0,3.3,2.7,6,6,6h52c3.3,0,6-2.7,6-6C220.1,171.5,217.4,168.8,214.1,168.8z"
	/>
<path class="st0" d="M135,174.8c0-3.3-2.7-6-6-6h-88c-3.3,0-6,2.7-6,6c0,3.3,2.7,6,6,6h88C132.3,180.8,135,178.1,135,174.8z"/>
<path class="st0" d="M490,263.1c0-17.3-13.5-31.6-30.7-32.7c-17.3-1.1-32.4,11.5-34.5,28.7c-2.1,17.2,9.5,33,26.5,36.2v35.9
	c-4.8-1.8-9.7-2.9-14.8-3.4v0c0-19.8-16.1-35.9-36-36h-50.2v-19.4c0-8-6.5-14.5-14.5-14.5h-42.4v-18.8c0-3.3-2.7-6-6-6
	c-3.3,0-6,2.7-6,6v18.8h-41.6c-8,0-14.4,6.5-14.5,14.5v19.4h-50.2c-19.8,0-35.9,16.1-36,36v118.4c0,19.8,16.1,35.9,36,36h225.4
	c19.8,0,35.9-16.1,36-36v0c25-2.5,45.8-20.5,51.8-45c6-24.4-4-50-25-63.8v-42C478.7,292.4,490,278.8,490,263.1z M237.4,272.4
	c0-1.4,1.1-2.5,2.5-2.5h96c1.4,0,2.5,1.1,2.5,2.5v19.4H237.4V272.4z M424.5,446.1c0,13.2-10.7,24-24,24H175.2c-13.2,0-24-10.7-24-24
	V327.7c0-13.2,10.7-24,24-24h225.4c13.2,0,24,10.7,24,24V446.1z M478,386.9c0,23.9-17.8,44.1-41.5,47.1v-94.2
	C460.2,342.8,478,363,478,386.9z M436.5,263.1c0-11.5,9.3-20.7,20.7-20.7s20.8,9.3,20.8,20.7s-9.3,20.8-20.8,20.8
	C445.8,283.8,436.5,274.5,436.5,263.1z"/>
<path class="st0" d="M214,355.5h-5.9c-11,0-20,8.9-20,20v17.1c0,3.3,2.7,6,6,6H228c3.3,0,6-2.7,6-6v-17.1
	C234,364.4,225.1,355.5,214,355.5z M222,386.5h-21.9v-11.1c0-4.4,3.6-8,8-8h5.9c4.4,0,8,3.6,8,8V386.5z"/>
<path class="st0" d="M367.6,355.5h-5.9c-11,0-20,8.9-20,20v17.1c0,3.3,2.7,6,6,6h33.9c3.3,0,6-2.7,6-6v-17.1
	C387.6,364.4,378.6,355.5,367.6,355.5z M375.6,386.5h-21.9v-11.1c0-4.4,3.6-8,8-8h5.9c4.4,0,8,3.6,8,8V386.5z"/>
<path class="st0" d="M321.8,413.6H254c-3.3,0-6,2.7-6,6v5.9c0,18.7,15.2,33.9,34,34h11.8c18.7,0,33.9-15.2,34-34v-5.9
	C327.7,416.2,325.1,413.6,321.8,413.6z M293.8,447.4H282c-12.1,0-21.9-9.8-22-21.9h55.8C315.7,437.6,305.9,447.4,293.8,447.4z"/>
</svg>
