<?xml version="1.0" encoding="utf-8"?>
<!-- Generator: Adobe Illustrator 23.0.0, SVG Export Plug-In . SVG Version: 6.00 Build 0)  -->
<svg version="1.1" id="Layer_1" xmlns="http://www.w3.org/2000/svg" xmlns:xlink="http://www.w3.org/1999/xlink" x="0px" y="0px"
	 viewBox="0 0 492 492" style="enable-background:new 0 0 492 492;" xml:space="preserve">
<style type="text/css">
	.st0{fill:#FE0201;}
</style>
<path class="st0" d="M208.7,430.1h-46.1c-3.3,0-6,2.7-6,6c0,3.3,2.7,6,6,6h46.1c3.3,0,6-2.7,6-6
	C214.7,432.8,212.1,430.1,208.7,430.1z"/>
<path class="st0" d="M285.2,181c0-10.7-8.1-19.6-18.7-20.7c-10.6-1-20.3,6.2-22.4,16.6c-2.1,10.5,4.1,20.8,14.4,23.9v14
	c-2.2-0.6-4.4-0.9-6.7-1c-6.1-12.1-18.5-19.7-32.1-19.8h-11.6v-8c0-5.9-4.8-10.7-10.7-10.7h-20.7v-7.7c0-3.3-2.7-6-6-6
	c-3.3,0-6,2.7-6,6v7.7h-20.3c-5.9,0-10.7,4.8-10.7,10.7v8h-11.6c-19.9,0-36,16.1-36,36v59.2c0,19.9,16.1,36,36,36h97.5
	c19.9,0,36-16.1,36-36v-5c14.1-2.4,25.4-13,28.6-27c3.2-13.9-2.2-28.5-13.9-36.8v-19.7C279.2,198.2,285.2,190.1,285.2,181z
	 M145.7,187.4h50.3v6.7h-50.3V187.4z M243.7,289.3c0,13.2-10.8,24-24,24h-97.5c-13.2,0-24-10.8-24-24v-59.2c0-13.2,10.8-24,24-24
	h97.5c13.3,0,24,10.8,24,24V289.3z M255.7,272.1v-45.5c10.3,2.7,17.5,12.1,17.5,22.8S266,269.3,255.7,272.1L255.7,272.1z M255.7,181
	c0-4.8,3.9-8.8,8.8-8.8s8.8,3.9,8.8,8.8s-3.9,8.8-8.8,8.8C259.6,189.7,255.7,185.8,255.7,181L255.7,181z"/>
<path class="st0" d="M128.9,229.3h-0.7c-8.3,0-15,6.7-15,15v8.1c0,3.3,2.7,6,6,6h18.7c3.3,0,6-2.7,6-6v-8.1
	C143.9,236,137.2,229.3,128.9,229.3z M131.9,246.4h-6.7v-2.1c0-1.7,1.3-3,3-3h0.7c1.7,0,3,1.3,3,3V246.4z"/>
<path class="st0" d="M213.7,229.3h-0.7c-8.3,0-15,6.7-15,15v8.1c0,3.3,2.7,6,6,6h18.7c3.3,0,6-2.7,6-6v-8.1
	C228.6,236,221.9,229.3,213.7,229.3z M216.7,246.4h-6.7v-2.1c0-1.7,1.3-3,3-3h0.7c1.7,0,3,1.3,3,3V246.4z"/>
<path class="st0" d="M189.6,271.7h-37.4c-3.3,0-6,2.7-6,6v0.7c0,13.2,10.8,24,24,24h1.4c13.2,0,24-10.8,24-24v-0.7
	C195.6,274.4,192.9,271.7,189.6,271.7z M171.6,290.4h-1.4c-4.6,0-8.7-2.6-10.8-6.7h22.9C180.4,287.8,176.2,290.4,171.6,290.4z"/>
<path class="st0" d="M399.3,44h-47c-3.3,0-6,2.7-6,6c0,3.3,2.7,6,6,6h47c3.3,0,6-2.7,6-6C405.3,46.7,402.6,44,399.3,44z"/>
<path class="st0" d="M267.9,56h58.8c3.3,0,6-2.7,6-6c0-3.3-2.7-6-6-6h-58.8c-3.3,0-6,2.7-6,6C261.9,53.4,264.5,56,267.9,56z"/>
<path class="st0" d="M399.3,70.8h-94.1c-3.3,0-6,2.7-6,6c0,3.3,2.7,6,6,6h94.1c3.3,0,6-2.7,6-6C405.3,73.5,402.6,70.8,399.3,70.8z"
	/>
<path class="st0" d="M267.9,82.8h11.8c3.3,0,6-2.7,6-6c0-3.3-2.7-6-6-6h-11.8c-3.3,0-6,2.7-6,6C261.9,80.1,264.5,82.8,267.9,82.8z"
	/>
<path class="st0" d="M399.3,97.5H348c-3.3,0-6,2.7-6,6c0,3.3,2.7,6,6,6h51.3c3.3,0,6-2.7,6-6C405.3,100.2,402.6,97.5,399.3,97.5z"/>
<path class="st0" d="M322.4,97.5h-54.5c-3.3,0-6,2.7-6,6c0,3.3,2.7,6,6,6h54.5c3.3,0,6-2.7,6-6C328.4,100.2,325.7,97.5,322.4,97.5z"
	/>
<path class="st0" d="M409.5,0H257.7c-15.1,0-27.4,12.3-27.4,27.4v3.8H110.9C80,31.2,55,56.2,55,87v349.1C55,467,80,492,110.9,492
	h149.6c30.8,0,55.8-25,55.9-55.9V198.1c1.8-1.3,3.6-2.6,5.3-4.1c8.6-7.6,18.6-21.4,18.4-44h69.5c7.3,0,14.2-2.9,19.4-8
	c5.1-5.1,8-12.1,8-19.4V27.4C436.9,12.3,424.6,0,409.5,0z M110.9,43.2h119.5v46.6H67V87C67,62.8,86.7,43.2,110.9,43.2z M260.5,480
	H110.9C86.7,480,67,460.3,67,436.1v-43.9h237.4v43.9C304.3,460.3,284.7,480,260.5,480z M304.4,380.3H67V101.8h163.3v20.8
	c0,15.1,12.3,27.4,27.4,27.4h18.4c6.7,0,11.5,2,14.7,6.2c8.5,10.9,5.2,34,3.3,42c-0.5,2.1,0.1,4.2,1.6,5.7s3.7,2.1,5.8,1.5
	c0.1,0,1.2-0.3,2.8-0.9V380.3z M424.9,122.6c0,4.1-1.6,8-4.5,10.9c-2.9,2.9-6.8,4.5-10.9,4.5h-72.1c-2.6,0-5,1-6.8,2.9
	c-1.8,1.9-2.8,4.4-2.6,7c1,23.5-10.8,35.5-19.8,41.3c-0.1,0.1-0.3,0.1-0.4,0.2c1.3-11.6,1.4-29.3-7.4-40.6
	c-5.6-7.2-13.8-10.8-24.2-10.8h-18.4c-8.5,0-15.4-6.9-15.4-15.4V27.4c0-8.5,6.9-15.4,15.4-15.4h151.8c8.5,0,15.4,6.9,15.4,15.4
	V122.6z"/>
</svg>
