<?xml version="1.0" encoding="utf-8"?>
<!-- Generator: Adobe Illustrator 23.0.0, SVG Export Plug-In . SVG Version: 6.00 Build 0)  -->
<svg version="1.1" id="Layer_1" xmlns="http://www.w3.org/2000/svg" xmlns:xlink="http://www.w3.org/1999/xlink" x="0px" y="0px"
	 viewBox="0 0 492 492" style="enable-background:new 0 0 492 492;" xml:space="preserve">
<style type="text/css">
	.st0{fill:#FE0201;}
	.st1{fill:#FE0201;stroke:#FFFFFF;stroke-miterlimit:10;}
</style>
<path class="st0" d="M465.3,397.3V171.9c9-4.5,14.6-13.7,14.7-23.7V56.6c0-14.7-11.9-26.6-26.6-26.6H307.3
	c-14.7,0-26.6,11.9-26.6,26.6v49.9h-220c-16.4,0-29.7,13.3-29.7,29.7v260.7c-17.6,0.6-31.4,15.2-31,32.8
	c0.3,17.6,14.7,31.6,32.3,31.6h427.5c16.7,0,30.7-12.8,32.1-29.4C493.3,415.2,481.8,400.2,465.3,397.3z M292.8,56.6
	c0-8,6.5-14.6,14.6-14.6h146.1c8,0,14.6,6.5,14.6,14.6v91.6c0,3.9-1.5,7.6-4.3,10.3c-2.7,2.7-6.4,4.3-10.3,4.3H384
	c-2.5,0-4.9,1-6.7,2.9c-1.8,1.9-2.7,4.4-2.6,6.9c1,22.5-10.3,34-18.9,39.5c1.2-11.2,1.2-28-7.2-38.8c-5.4-7-13.4-10.5-23.5-10.5
	h-17.7c-8,0-14.6-6.5-14.6-14.6V56.6z M283.3,159.5c4.4,9.3,13.7,15.2,24,15.2h17.7c6.3,0,10.9,1.9,14,5.9c8.1,10.4,5,32.6,3.1,40.2
	c-0.5,2.1,0.1,4.2,1.6,5.7c1.5,1.5,3.7,2.1,5.8,1.5c7.2-2.3,13.8-6,19.4-11c8.3-7.3,17.9-20.5,17.8-42.3H414v185.3H82.4V159.5H283.3
	z M60.8,118.4h220v29.1H76.4c-3.3,0-6,2.7-6,6v212.6c0,3.3,2.7,6,6,6H420c3.3,0,6-2.7,6-6V174.8h27.3v222.1h-139
	c-9.9,0-17.9,8-17.9,17.9c0,3.2-2.6,5.9-5.9,5.9h-94.9c-3.2,0-5.9-2.6-5.9-5.9c0-9.9-8-17.9-17.9-17.9H43V136.2
	C43.1,126.4,51,118.5,60.8,118.4z M474.1,443.4c-3.8,3.8-8.9,5.9-14.3,5.9H32.3c-11.1-0.1-20.1-9.1-20.1-20.2
	c0-11.1,9-20.2,20.1-20.2H172c3.2,0,5.9,2.6,5.9,5.9c0,9.9,8,17.8,17.9,17.9h94.9c9.9,0,17.9-8,17.9-17.9c0-3.2,2.6-5.9,5.9-5.9
	h145.4c8.2,0,15.6,4.9,18.7,12.5C481.6,428.9,479.9,437.6,474.1,443.4z"/>
<path class="st0" d="M156,340.6h108.4c14.1,0,27-8.3,32.8-21.2c15.8-1.2,29.1-12.1,33.4-27.4c4.3-15.2-1.5-31.5-14.4-40.7v-21.5
	c10.4-3,17.1-13.2,15.6-24c-1.5-10.8-10.7-18.8-21.6-18.8s-20.1,8-21.6,18.8c-1.5,10.8,5.1,21,15.6,24v15.9c-2.3-0.6-4.6-1-7-1.2
	c-5.8-12.9-18.7-21.2-32.8-21.2h-14.9v-9c0-6.1-4.9-11-11-11H216v-8.7c0-3.3-2.7-6-6-6c-3.3,0-6,2.7-6,6v8.7h-22.1
	c-6.1,0-11,4.9-11,11v9H156c-19.9,0-36,16.1-36,36v45.3C120,324.5,136.1,340.6,156,340.6z M300.4,208.9c0-5.4,4.4-9.8,9.8-9.8
	c5.4,0,9.8,4.4,9.8,9.8c0,5.4-4.4,9.8-9.8,9.8C304.8,218.7,300.4,214.3,300.4,208.9z M300.4,257.1c11.5,2.8,19.6,13.1,19.6,24.9
	s-8.1,22.1-19.6,24.9V257.1z M182.9,215.4h54.7v8h-54.7V215.4z M132,259.4c0-13.2,10.8-24,24-24h108.4c13.2,0,24,10.7,24,24v45.3
	c0,13.2-10.7,24-24,24H156c-13.2,0-24-10.7-24-24V259.4z"/>
<path class="st0" d="M154.9,291.3h20c3.3,0,6-2.7,6-6V277c0-8.8-7.2-16-16-16s-16,7.2-16,16v8.3
	C148.9,288.6,151.6,291.3,154.9,291.3z M160.9,277c0-2.2,1.8-4,4-4c2.2,0,4,1.8,4,4v2.3h-8V277z"/>
<path class="st1" d="M245.6,291.3h20c3.3,0,6-2.7,6-6V277c0-8.8-7.2-16-16-16c-8.8,0-16,7.2-16,16v8.3
	C239.6,288.6,242.2,291.3,245.6,291.3z M251.6,277c0-2.2,1.8-4,4-4c2.2,0,4,1.8,4,4v2.3h-8V277z"/>
<path class="st0" d="M210.2,327.3c14.4,0,26-11.6,26-26c0-3.3-2.7-6-6-6h-40c-3.3,0-6,2.7-6,6C184.2,315.6,195.9,327.3,210.2,327.3z
	 M222.9,307.3c-2.3,4.9-7.2,8-12.6,8c-5.4,0-10.3-3.1-12.7-8H222.9z"/>
<path class="st0" d="M398.4,84.4h45.3c3.3,0,6-2.7,6-6c0-3.3-2.7-6-6-6h-45.3c-3.3,0-6,2.7-6,6C392.4,81.7,395.1,84.4,398.4,84.4z"
	/>
<path class="st0" d="M317.1,84.4h56.6c3.3,0,6-2.7,6-6c0-3.3-2.7-6-6-6h-56.6c-3.3,0-6,2.7-6,6C311.1,81.7,313.8,84.4,317.1,84.4z"
	/>
<path class="st0" d="M443.7,98.1h-90.5c-3.3,0-6,2.7-6,6c0,3.3,2.7,6,6,6h90.5c3.3,0,6-2.7,6-6C449.7,100.8,447,98.1,443.7,98.1z"/>
<path class="st0" d="M317.1,110.1h11.3c3.3,0,6-2.7,6-6c0-3.3-2.7-6-6-6h-11.3c-3.3,0-6,2.7-6,6
	C311.1,107.4,313.8,110.1,317.1,110.1z"/>
<path class="st0" d="M443.7,123.8h-49.4c-3.3,0-6,2.7-6,6c0,3.3,2.7,6,6,6h49.4c3.3,0,6-2.7,6-6C449.7,126.5,447,123.8,443.7,123.8z
	"/>
<path class="st0" d="M317.1,135.8h52.5c3.3,0,6-2.7,6-6c0-3.3-2.7-6-6-6h-52.5c-3.3,0-6,2.7-6,6
	C311.1,133.2,313.8,135.8,317.1,135.8z"/>
</svg>
