<?xml version="1.0" encoding="utf-8"?>
<!-- Generator: Adobe Illustrator 23.0.0, SVG Export Plug-In . SVG Version: 6.00 Build 0)  -->
<svg version="1.1" id="Layer_1" xmlns="http://www.w3.org/2000/svg" xmlns:xlink="http://www.w3.org/1999/xlink" x="0px" y="0px"
	 viewBox="0 0 496 496" style="enable-background:new 0 0 496 496;" xml:space="preserve">
<style type="text/css">
	.st0{fill:#FE0201;}
</style>
<path class="st0" d="M184,304c-13.2,0-24,10.8-24,24s10.8,24,24,24s24-10.8,24-24S197.2,304,184,304z M184,336c-4.4,0-8-3.6-8-8
	s3.6-8,8-8s8,3.6,8,8S188.4,336,184,336z"/>
<path class="st0" d="M216,224c13.2,0,24-10.8,24-24s-10.8-24-24-24s-24,10.8-24,24S202.8,224,216,224z M216,192c4.4,0,8,3.6,8,8
	s-3.6,8-8,8s-8-3.6-8-8S211.6,192,216,192z"/>
<path class="st0" d="M280,224c13.2,0,24-10.8,24-24s-10.8-24-24-24s-24,10.8-24,24S266.8,224,280,224z M280,192c4.4,0,8,3.6,8,8
	s-3.6,8-8,8s-8-3.6-8-8S275.6,192,280,192z"/>
<path class="st0" d="M312,304c-13.2,0-24,10.8-24,24s10.8,24,24,24s24-10.8,24-24S325.2,304,312,304z M312,336c-4.4,0-8-3.6-8-8
	s3.6-8,8-8s8,3.6,8,8S316.4,336,312,336z"/>
<path class="st0" d="M232,320h32v16h-32V320z"/>
<path class="st0" d="M483.7,20.9C473.9,7.8,458.2,0,441.8,0h-3.7c-16.4,0-32,7.8-41.9,20.9C388.4,31.5,384,44.6,384,57.8
	c0,16.4,6.4,31.9,18,43.5l6,6V136c0,4.4,3.6,8,8,8h48c4.4,0,8-3.6,8-8v-28.7l6-6c11.6-11.6,18-27.1,18-43.5
	C496,44.6,491.6,31.5,483.7,20.9z M424,128v-16h32v16H424z M466.7,90l-6,6H448V64h-16v32h-12.7l-6-6c-8.6-8.6-13.3-20-13.3-32.2
	c0-9.8,3.2-19.5,9.1-27.3c6.8-9.1,17.7-14.5,29.1-14.5h3.7c11.4,0,22.2,5.4,29.1,14.5c5.9,7.8,9.1,17.5,9.1,27.3
	C480,70,475.3,81.4,466.7,90z"/>
<path class="st0" d="M328,64h40v16h-40V64z"/>
<path class="st0" d="M330.3,122.3l32-32l11.3,11.3l-32,32L330.3,122.3z"/>
<path class="st0" d="M330.3,21.7l11.3-11.3l32,32l-11.3,11.3L330.3,21.7z"/>
<path class="st0" d="M88,136v-28.7l6-6c11.6-11.6,18-27.1,18-43.5c0-13.2-4.4-26.3-12.3-36.9C89.9,7.8,74.2,0,57.8,0h-3.7
	c-16.4,0-32,7.8-41.9,20.9C4.4,31.5,0,44.6,0,57.8c0,16.4,6.4,31.9,18,43.5l6,6V136c0,4.4,3.6,8,8,8h48C84.4,144,88,140.4,88,136z
	 M29.3,90C20.7,81.4,16,70,16,57.8c0-9.8,3.2-19.5,9.1-27.3C31.9,21.4,42.8,16,54.2,16h3.7c11.4,0,22.2,5.4,29.1,14.5
	c5.9,7.8,9.1,17.5,9.1,27.3C96,70,91.3,81.4,82.7,90l-6,6H64V64H48v32H35.3L29.3,90z M40,128v-16h32v16H40z"/>
<path class="st0" d="M128,64h40v16h-40V64z"/>
<path class="st0" d="M122.3,101.7l11.3-11.3l32,32l-11.3,11.3L122.3,101.7z"/>
<path class="st0" d="M122.3,42.3l32-32l11.3,11.3l-32,32L122.3,42.3z"/>
<path class="st0" d="M424,344h-8v-24c0-17.6-14.4-32-32-32h-17.5c-3.3-9.3-12.1-16-22.5-16h-24v-16h8c4.4,0,8-3.6,8-8v-8h24
	c4.4,0,8-3.6,8-8v-64c0-4.4-3.6-8-8-8h-24v-8c0-4.4-3.6-8-8-8h-56v-8c0-13.2-10.8-24-24-24s-24,10.8-24,24v8h-56c-4.4,0-8,3.6-8,8v8
	h-24c-4.4,0-8,3.6-8,8v64c0,4.4,3.6,8,8,8h24v8c0,4.4,3.6,8,8,8h8v16h-24c-10.4,0-19.2,6.7-22.5,16H112c-17.6,0-32,14.4-32,32v24h-8
	c-4.4,0-8,3.6-8,8v32h16v-24h16v24h16v-32c0-4.4-3.6-8-8-8h-8v-24c0-8.8,7.2-16,16-16h16v72c0,4.4,3.6,8,8,8h40v32h-16
	c-4.4,0-8,3.6-8,8v24h-8c-4.4,0-8,3.6-8,8v32c0,4.4,3.6,8,8,8h80c4.4,0,8-3.6,8-8v-32c0-4.4-3.6-8-8-8h-8v-24c0-4.4-3.6-8-8-8h-16
	v-32h112v32h-16c-4.4,0-8,3.6-8,8v24h-8c-4.4,0-8,3.6-8,8v32c0,4.4,3.6,8,8,8h80c4.4,0,8-3.6,8-8v-32c0-4.4-3.6-8-8-8h-8v-24
	c0-4.4-3.6-8-8-8h-16v-32h40c4.4,0,8-3.6,8-8v-72h16c8.8,0,16,7.2,16,16v24h-8c-4.4,0-8,3.6-8,8v32h16v-24h16v24h16v-32
	C432,347.6,428.4,344,424,344z M216,480h-64v-16h64V480z M200,448h-32v-16h32V448z M344,480h-64v-16h64V480z M328,448h-32v-16h32
	V448z M352,176v48h-16v-48H352z M240,136c0-4.4,3.6-8,8-8s8,3.6,8,8v8h-16V136z M176,160h144v80H176V160z M144,224v-48h16v48H144z
	 M192,256h112v16H192V256z M352,368H144v-72c0-4.4,3.6-8,8-8h192c4.4,0,8,3.6,8,8V368z"/>
</svg>
